# AST/ASF file generated using VICON BodyLanguage
# -----------------------------------------------
:version 1.10
:name VICON
:units
  mass 1.0
  length 0.45
  angle deg
:documentation
   .ast/.asf automatically generated from VICON data using
   VICON BodyBuilder and BodyLanguage model FoxedUp or BRILLIANT.MOD
:root
   order TX TY TZ RX RY RZ
   axis XYZ
   position 0 0 0  
   orientation 0 0 0 
:bonedata
  begin
     id 1 
     name lhipjoint
     direction 0.522423 -0.726805 0.445902 
     length 2.25074 
     axis 0 0 0  XYZ
  end
  begin
     id 2 
     name lfemur
     direction 0.34202 -0.939693 0  
     length 6.54609  
     axis 0 0 20  XYZ
    dof rx ry rz
    limits (-160.0 20.0)
           (-70.0 70.0)
           (-60.0 70.0)
  end
  begin
     id 3 
     name ltibia
     direction 0.34202 -0.939693 0   
     length 7.7528   
     axis 0 0 20   XYZ
    dof rx
    limits (-10.0 170.0)
  end
  begin
     id 4 
     name lfoot
     direction 0.143696 -0.394801 0.90746   
     length 1.73269   
     axis -90 7.62852e-016 20   XYZ
    dof rx rz
    limits (-45.0 90.0)
           (-70.0 20.0)
  end
  begin
     id 5 
     name ltoes
     direction 1.53633e-011 -4.21912e-011 1   
     length 0.858383   
     axis -90 7.62852e-016 20   XYZ
    dof rx
    limits (-90.0 20.0)
  end
  begin
     id 6 
     name rhipjoint
     direction -0.515943 -0.73016 0.447961   
     length 2.2404  
     axis 0 0 0  XYZ 
  end
  begin
     id 7 
     name rfemur
     direction -0.34202 -0.939693 0   
     length 6.84377   
     axis 0 0 -20   XYZ
    dof rx ry rz
    limits (-160.0 20.0)
           (-70.0 70.0)
           (-70.0 60.0)
  end
  begin
     id 8 
     name rtibia
     direction -0.34202 -0.939693 0   
     length 7.57596   
     axis 0 0 -20   XYZ
    dof rx
    limits (-10.0 170.0)
 end
 begin
     id 9 
     name rfoot
     direction -0.0999372 -0.274575 0.956358   
     length 1.78783  
     axis -90 -7.62852e-016 -20   XYZ
    dof rx rz
    limits (-45.0 90.0)
           (-20.0 70.0)
  end
  begin
     id 10 
     name rtoes
     direction -1.53535e-011 -4.21895e-011 1   
     length 0.898614   
     axis -90 -7.62852e-016 -20   XYZ
    dof rx
    limits (-90.0 20.0)
  end
  begin
     id 11 
     name lowerback
     direction -0.011775 0.996164 -0.0867116   
     length 1.91499   
     axis 0 0 0   XYZ
    dof rx ry rz
    limits (-20.0 45.0)
           (-30.0 30.0)
           (-30.0 30.0)
  end
  begin
     id 12 
     name upperback
     direction -0.00189771 0.999673 -0.0254833   
     length 1.92213   
     axis 0 0 0   XYZ
    dof rx ry rz
    limits (-20.0 45.0)
           (-30.0 30.0)
           (-30.0 30.0)
  end
  begin
     id 13 
     name thorax
     direction 0.00335995 0.999878 0.0152401   
     length 1.93138   
     axis 0 0 0   XYZ
    dof rx ry rz
    limits (-20.0 45.0)
           (-30.0 30.0)
           (-30.0 30.0)
  end
  begin
     id 14 
     name lowerneck
     direction 0.00233191 0.998509 0.0545404   
     length 1.59408   
     axis 0 0 0   XYZ
    dof rx ry rz
    limits (-20.0 45.0)
           (-30.0 30.0)
           (-30.0 30.0)
  end
  begin
     id 15 
     name upperneck
     direction 0.07881 0.9956 -0.0506934   
     length 1.59344   
     axis 0 0 0   XYZ
    dof rx ry rz
    limits (-20.0 45.0)
           (-30.0 30.0)
           (-30.0 30.0)
  end
  begin
     id 16
     name head
     direction 0.0261681 0.999378 -0.0236299  
     length 1.60935  
     axis 0 0 0   XYZ
    dof rx ry rz
    limits (-20.0 45.0)
           (-30.0 30.0)
           (-30.0 30.0)
  end
  begin
     id 17 
     name lclavicle
     direction 0.96643 0.252035 0.0499195  
     length 3.82153  
     axis 0 0 0   XYZ
    dof ry rz
    limits (-20.0 10.0)
           (0.0 20.0)
  end
  begin
     id 18 
     name lhumerus
     direction 1 -4.48967e-011 -2.01614e-018   
     length 4.87796   
     axis 180 -30 -90   XYZ
    dof rx ry rz
    limits (-60.0 90.0)
           (-90.0 90.0)
           (-90.0 90.0)
  end
  begin
     id 19
     name lradius
     direction 1 -4.48958e-011 3.1409e-027   
     length 3.23169   
     axis 180 -30 -90   XYZ
    dof rx
    limits (-10.0 170.0)
  end
  begin
     id 20
     name lwrist
     direction 1 -4.48924e-011 1.0365e-027   
     length 1.61584   
     axis -2.56395e-016 90 90   XYZ
    dof ry
    limits (-180.0 0.0)
 end
  begin
     id 21 
     name lhand
     direction 1 -4.49055e-011 2.09488e-027   
     length 0.731324   
     axis -1.32723e-015 90 90   XYZ
    dof rx rz
    limits (-90.0 90.0)
           (-45.0 45.0)
  end
  begin
     id 22 
     name lfingers
     direction 1 -4.48935e-011 4.14981e-027   
     length 0.589612   
     axis -2.6545e-015 90 90   XYZ
    dof rx
    limits (0.0 90.0)
  end
  begin
     id 23
     name lthumb
     direction 0.707107 -6.35097e-011 0.707107   
     length 0.846569   
     axis -90 45 5.05613e-014   XYZ
    dof rx rz
    limits (-45.0 45.0)
           (-45.0 45.0)
  end
  begin
     id 24 
     name rclavicle
     direction -0.979337 0.201016 0.0221522   
     length 3.73827  
     axis 0 0 0   XYZ 
    dof ry rz
    limits (-10.0 20.0)
           (-20.0 0.0)
  end
  begin
     id 25 
     name rhumerus
     direction -1 -4.48971e-011 1.65907e-027  
     length 4.9143   
     axis 180 30 90   XYZ
    dof rx ry rz
    limits (-90.0 60.0)
           (-90.0 90.0)
           (-90.0 90.0)
  end
  begin
     id 26 
     name rradius
     direction -1 -4.4894e-011 2.17871e-028   
     length 3.29093   
     axis 180 30 90   XYZ
    dof rx
    limits (-10.0 170.0)
  end
  begin
     id 27 
     name rwrist
     direction -1 -4.48971e-011 1.04038e-027   
     length 1.64546   
     axis -2.56395e-016 -90 -90   XYZ
    dof ry
    limits (-180.0 0.0)
  end
  begin
     id 28
     name rhand
     direction -1 -4.49017e-011 2.08843e-027   
     length 0.54512   
     axis -1.32723e-015 -90 -90   XYZ
    dof rx rz
    limits (-90.0 90.0)
           (-45.0 45.0)
  end
  begin
     id 29
     name rfingers
     direction -1 -4.48918e-011 4.1439e-027   
     length 0.43949   
     axis -2.6545e-015 -90 -90   XYZ
    dof rx
    limits (0.0 90.0)
  end
  begin
     id 30
     name rthumb
     direction -0.707107 -6.35065e-011 0.707107   
     length 0.631022   
     axis -90 -45 -5.05613e-014   XYZ
    dof rx rz
    limits (-45.0 45.0)
           (-45.0 45.0)
  end
:hierarchy
  begin
    root lhipjoint rhipjoint lowerback
    lhipjoint lfemur
    lfemur ltibia
    ltibia lfoot
    lfoot ltoes
    rhipjoint rfemur
    rfemur rtibia
    rtibia rfoot
    rfoot rtoes
    lowerback upperback
    upperback thorax
    thorax lowerneck lclavicle rclavicle
    lowerneck upperneck
    upperneck head
    lclavicle lhumerus
    lhumerus lradius
    lradius lwrist
    lwrist lhand lthumb
    lhand lfingers
    rclavicle rhumerus
    rhumerus rradius
    rradius rwrist
    rwrist rhand rthumb
    rhand rfingers
  end

#!OML:ASF H:\BreakDance\Project 1\Capture day 1\Session 1\Male.ASF
:FULLY-SPECIFIED
:DEGREES
136
root 10.3621 15.9032 -0.668193 -129.726 -88.5399 127.335
lowerback -7.41582 -0.342596 -3.28992
upperback 2.85228 -0.0596065 -1.13787
thorax 7.16693 -0.15874 0.645243
lowerneck -0.0990743 0.877567 -1.4684
upperneck 19.2525 0.0640225 3.82369
head 5.8129 -0.049385 1.43331
rclavicle 3.72877e-015 1.35174e-014
rhumerus -28.0919 17.8335 -92.8722
rradius 45.8754
rwrist 14.5201
rhand -18.4 -38.316
rfingers 7.12502
rthumb 7.88431 -68.149
lclavicle 3.72877e-015 1.35174e-014
lhumerus -30.3177 9.43797 84.1584
lradius 52.6503
lwrist -32.8692
lhand -12.1341 -29.4684
lfingers 7.12502
lthumb 13.9277 0.0451221
rfemur -9.79707 2.77745 8.69084
rtibia 39.6146
rfoot -34.2658 -9.28435
rtoes 31.2843
lfemur -12.1652 0.660045 -9.41022
ltibia 39.9992
lfoot -27.5904 22.261
ltoes -35.4752
137
root 10.3655 15.9041 -0.669295 -126.958 -88.5473 124.603
lowerback -7.32039 -0.346997 -3.34739
upperback 2.81386 -0.0632522 -1.17132
thorax 7.07128 -0.160894 0.64259
lowerneck 0.100888 0.88303 -1.48058
upperneck 19.0112 0.0795318 3.85542
head 5.70224 -0.0414202 1.44395
rclavicle -5.99771e-015 0
rhumerus -28.1278 17.7952 -92.9309
rradius 45.8994
rwrist 14.457
rhand -18.2857 -38.4972
rfingers 7.12502
rthumb 7.99455 -68.326
lclavicle -5.99771e-015 0
lhumerus -30.3699 9.3641 84.0987
lradius 52.6854
lwrist -32.8741
lhand -12.2288 -29.5325
lfingers 7.12502
lthumb 13.8365 -0.0127557
rfemur -9.8325 2.77537 8.66208
rtibia 39.6304
rfoot -34.3115 -9.34031
rtoes 31.3102
lfemur -12.2767 0.792193 -9.41755
ltibia 40.0039
lfoot -27.4358 22.1741
ltoes -35.3661
138
root 10.3698 15.9047 -0.670122 -124.497 -88.591 122.186
lowerback -7.21155 -0.342874 -3.34968
upperback 2.77936 -0.0614957 -1.20826
thorax 6.9716 -0.157778 0.606136
lowerneck 0.324569 0.883205 -1.47793
upperneck 18.677 0.0938955 3.88886
head 5.55885 -0.032025 1.45193
rclavicle -2.80317e-015 0
rhumerus -28.1469 17.7049 -92.9931
rradius 45.9235
rwrist 14.4063
rhand -18.186 -38.6848
rfingers 7.12502
rthumb 8.09085 -68.5099
lclavicle -2.80317e-015 0
lhumerus -30.4059 9.23201 84.0349
lradius 52.7304
lwrist -32.85
lhand -12.3237 -29.6031
lfingers 7.12502
lthumb 13.745 -0.0770514
rfemur -9.87354 2.78081 8.67819
rtibia 39.6487
rfoot -34.3743 -9.40313
rtoes 31.3585
lfemur -12.4139 0.96964 -9.37542
ltibia 40.0211
lfoot -27.2729 22.0392
ltoes -35.2333
139
root 10.3756 15.905 -0.670728 -121.688 -88.6763 119.432
lowerback -7.08867 -0.33412 -3.30508
upperback 2.75419 -0.0587342 -1.24264
thorax 6.87354 -0.152275 0.546228
lowerneck 0.549566 0.878285 -1.48342
upperneck 18.2307 0.108856 3.93921
head 5.38061 -0.020231 1.46598
rclavicle 4.75375e-015 7.55382e-015
rhumerus -28.1406 17.571 -93.0428
rradius 45.9524
rwrist 14.3638
rhand -18.138 -38.848
rfingers 7.12502
rthumb 8.13717 -68.6713
lclavicle 4.75375e-015 7.55382e-015
lhumerus -30.4133 9.04569 83.9814
lradius 52.7938
lwrist -32.7773
lhand -12.3556 -29.65
lfingers 7.12502
lthumb 13.7143 -0.121904
rfemur -9.9257 2.79082 8.73762
rtibia 39.671
rfoot -34.4561 -9.47108
rtoes 31.4725
lfemur -12.5853 1.20843 -9.28418
ltibia 40.0582
lfoot -27.1188 21.8141
ltoes -35.0884
140
root 10.3832 15.9048 -0.671341 -117.993 -88.801 115.804
lowerback -6.94574 -0.327063 -3.23222
upperback 2.7426 -0.0620807 -1.26511
thorax 6.77851 -0.149022 0.482215
lowerneck 0.764016 0.874864 -1.51
upperneck 17.6516 0.135499 4.01072
head 5.16317 -0.000858274 1.48991
rclavicle 1.6524e-015 6.75868e-015
rhumerus -28.1042 17.4178 -93.0701
rradius 45.9916
rwrist 14.326
rhand -18.1526 -38.9637
rfingers 7.12502
rthumb 8.12306 -68.7876
lclavicle 1.6524e-015 6.75868e-015
lhumerus -30.3863 8.83242 83.9471
lradius 52.8851
lwrist -32.6577
lhand -12.3237 -29.6409
lfingers 7.12502
lthumb 13.745 -0.11489
rfemur -9.99518 2.81551 8.84018
rtibia 39.6997
rfoot -34.5638 -9.54596
rtoes 31.6887
lfemur -12.7949 1.53772 -9.14179
ltibia 40.1239
lfoot -26.9872 21.4558
ltoes -34.9652
141
root 10.3926 15.9041 -0.672293 -113.037 -88.9683 110.927
lowerback -6.78167 -0.329611 -3.14767
upperback 2.75121 -0.0811139 -1.25901
thorax 6.69328 -0.153941 0.439579
lowerneck 0.967581 0.881804 -1.53856
upperneck 16.9159 0.193273 4.05969
head 4.89943 0.0344275 1.50738
rclavicle -2.29534e-015 -1.19271e-015
rhumerus -28.0276 17.2914 -93.0632
rradius 46.0453
rwrist 14.2843
rhand -18.2181 -39.0163
rfingers 7.12502
rthumb 8.05984 -68.8427
lclavicle -2.29534e-015 -1.19271e-015
lhumerus -30.3091 8.65049 83.9346
lradius 52.9832
lwrist -32.5071
lhand -12.2708 -29.5843
lfingers 7.12502
lthumb 13.796 -0.0617643
rfemur -10.0855 2.86682 8.99881
rtibia 39.7361
rfoot -34.7014 -9.65118
rtoes 31.9651
lfemur -13.0482 1.99039 -8.9332
ltibia 40.2294
lfoot -26.8761 20.9331
ltoes -34.8842
